<svg width="12" height="12" viewBox="0 0 12 12" fill="none" xmlns="http://www.w3.org/2000/svg">
<path d="M1.6981 7.98245C1.82499 8.1093 1.99706 8.18056 2.17647 8.18056C2.35588 8.18056 2.52795 8.1093 2.65484 7.98245L6.00408 4.63321L9.35333 7.98245C9.48094 8.1057 9.65186 8.1739 9.82926 8.17236C10.0067 8.17082 10.1764 8.09966 10.3018 7.97421C10.4273 7.84876 10.4984 7.67906 10.5 7.50165C10.5015 7.32424 10.4333 7.15333 10.3101 7.02572L6.48245 3.1981C6.35557 3.07126 6.1835 3 6.00408 3C5.82467 3 5.6526 3.07126 5.52572 3.1981L1.6981 7.02572C1.57126 7.1526 1.5 7.32467 1.5 7.50409C1.5 7.6835 1.57126 7.85557 1.6981 7.98245Z" fill="#636363"/>
</svg>
