<svg width="12" height="12" viewBox="0 0 12 12" fill="none" xmlns="http://www.w3.org/2000/svg">
<path d="M2.26768 11.7359C2.09628 11.5667 2 11.3373 2 11.098C2 10.8588 2.09628 10.6294 2.26768 10.4602L6.7932 5.99455L2.26768 1.52889C2.10114 1.35874 2.00899 1.13086 2.01107 0.894315C2.01316 0.657773 2.10931 0.431501 2.27882 0.264235C2.44833 0.0969681 2.67763 0.00209055 2.91734 3.5091e-05C3.15706 -0.00202037 3.388 0.0889116 3.56042 0.253246L8.73232 5.35673C8.90372 5.52591 9 5.75534 9 5.99455C9 6.23377 8.90372 6.4632 8.73232 6.63238L3.56042 11.7359C3.38898 11.905 3.15648 12 2.91405 12C2.67163 12 2.43913 11.905 2.26768 11.7359Z" fill="#636363"/>
</svg>
