<svg width="13" height="14" viewBox="0 0 13 14" fill="none" xmlns="http://www.w3.org/2000/svg">
<path d="M12.0714 7.92857H7.42857V12.5714C7.42857 13.0821 7.01071 13.5 6.5 13.5C5.98929 13.5 5.57143 13.0821 5.57143 12.5714V7.92857H0.928571C0.417857 7.92857 0 7.51071 0 7C0 6.48929 0.417857 6.07143 0.928571 6.07143H5.57143V1.42857C5.57143 0.917857 5.98929 0.5 6.5 0.5C7.01071 0.5 7.42857 0.917857 7.42857 1.42857V6.07143H12.0714C12.5821 6.07143 13 6.48929 13 7C13 7.51071 12.5821 7.92857 12.0714 7.92857Z" fill="white"/>
</svg>
