<svg width="16" height="16" viewBox="0 0 16 16" fill="none" xmlns="http://www.w3.org/2000/svg">
<path d="M5.26768 13.7359C5.09628 13.5667 5 13.3373 5 13.098C5 12.8588 5.09628 12.6294 5.26768 12.4602L9.7932 7.99455L5.26768 3.52889C5.10114 3.35874 5.00899 3.13086 5.01107 2.89431C5.01316 2.65777 5.10931 2.4315 5.27882 2.26423C5.44833 2.09697 5.67763 2.00209 5.91734 2.00004C6.15706 1.99798 6.388 2.08891 6.56042 2.25325L11.7323 7.35673C11.9037 7.52591 12 7.75534 12 7.99455C12 8.23377 11.9037 8.4632 11.7323 8.63238L6.56042 13.7359C6.38898 13.905 6.15648 14 5.91405 14C5.67163 14 5.43913 13.905 5.26768 13.7359Z" fill="#636363"/>
</svg>
