<svg width="12" height="12" viewBox="0 0 12 12" fill="none" xmlns="http://www.w3.org/2000/svg">
<path d="M1.6981 4.01804C1.82499 3.89119 1.99706 3.81993 2.17647 3.81993C2.35588 3.81993 2.52795 3.89119 2.65484 4.01804L6.00408 7.36728L9.35333 4.01804C9.48094 3.89478 9.65186 3.82659 9.82926 3.82813C10.0067 3.82967 10.1764 3.90083 10.3018 4.02628C10.4273 4.15173 10.4984 4.32143 10.5 4.49884C10.5015 4.67624 10.4333 4.84716 10.3101 4.97477L6.48245 8.80238C6.35557 8.92923 6.1835 9.00049 6.00408 9.00049C5.82467 9.00049 5.6526 8.92923 5.52572 8.80238L1.6981 4.97477C1.57126 4.84789 1.5 4.67582 1.5 4.4964C1.5 4.31699 1.57126 4.14492 1.6981 4.01804Z" fill="#636363"/>
</svg>
