<svg width="16" height="16" viewBox="0 0 16 16" fill="none" xmlns="http://www.w3.org/2000/svg">
<path d="M4.30592 1.30816C4.11004 1.50554 4 1.7732 4 2.05229C4 2.33138 4.11004 2.59904 4.30592 2.79641L9.47795 8.00635L4.30592 13.2163C4.11559 13.4148 4.01028 13.6807 4.01266 13.9566C4.01504 14.2326 4.12492 14.4966 4.31865 14.6917C4.51237 14.8869 4.77443 14.9976 5.04839 15C5.32235 15.0024 5.58628 14.8963 5.78334 14.7045L11.6941 8.75048C11.89 8.55311 12 8.28544 12 8.00635C12 7.72727 11.89 7.4596 11.6941 7.26223L5.78334 1.30816C5.5874 1.11085 5.32169 1 5.04463 1C4.76757 1 4.50186 1.11085 4.30592 1.30816Z" fill="#959595"/>
</svg>
