<svg width="16" height="16" viewBox="0 0 16 16" fill="none" xmlns="http://www.w3.org/2000/svg">
<path d="M12.6667 15.5C12.0185 15.5 11.4676 15.2812 11.0139 14.8438C10.5602 14.4063 10.3333 13.875 10.3333 13.25C10.3333 13.1625 10.3398 13.0717 10.3528 12.9777C10.3657 12.8837 10.3852 12.7995 10.4111 12.725L4.92778 9.65C4.70741 9.8375 4.46111 9.9845 4.18889 10.091C3.91667 10.1975 3.63148 10.2505 3.33333 10.25C2.68519 10.25 2.13426 10.0312 1.68056 9.59375C1.22685 9.15625 1 8.625 1 8C1 7.375 1.22685 6.84375 1.68056 6.40625C2.13426 5.96875 2.68519 5.75 3.33333 5.75C3.63148 5.75 3.91667 5.80325 4.18889 5.90975C4.46111 6.01625 4.70741 6.163 4.92778 6.35L10.4111 3.275C10.3852 3.2 10.3657 3.11575 10.3528 3.02225C10.3398 2.92875 10.3333 2.838 10.3333 2.75C10.3333 2.125 10.5602 1.59375 11.0139 1.15625C11.4676 0.71875 12.0185 0.5 12.6667 0.5C13.3148 0.5 13.8657 0.71875 14.3194 1.15625C14.7731 1.59375 15 2.125 15 2.75C15 3.375 14.7731 3.90625 14.3194 4.34375C13.8657 4.78125 13.3148 5 12.6667 5C12.3685 5 12.0833 4.947 11.8111 4.841C11.5389 4.735 11.2926 4.588 11.0722 4.4L5.58889 7.475C5.61481 7.55 5.63426 7.6345 5.64722 7.7285C5.66019 7.8225 5.66667 7.913 5.66667 8C5.66667 8.0875 5.66019 8.17825 5.64722 8.27225C5.63426 8.36625 5.61481 8.4505 5.58889 8.525L11.0722 11.6C11.2926 11.4125 11.5389 11.2657 11.8111 11.1597C12.0833 11.0537 12.3685 11.0005 12.6667 11C13.3148 11 13.8657 11.2188 14.3194 11.6562C14.7731 12.0937 15 12.625 15 13.25C15 13.875 14.7731 14.4063 14.3194 14.8438C13.8657 15.2812 13.3148 15.5 12.6667 15.5ZM12.6667 3.5C12.887 3.5 13.0719 3.428 13.2212 3.284C13.3706 3.14 13.445 2.962 13.4444 2.75C13.4444 2.5375 13.3698 2.35925 13.2204 2.21525C13.0711 2.07125 12.8865 1.9995 12.6667 2C12.4463 2 12.2614 2.072 12.1121 2.216C11.9628 2.36 11.8884 2.538 11.8889 2.75C11.8889 2.9625 11.9636 3.14075 12.1129 3.28475C12.2622 3.42875 12.4468 3.5005 12.6667 3.5ZM3.33333 8.75C3.5537 8.75 3.73856 8.678 3.88789 8.534C4.03722 8.39 4.11163 8.212 4.11111 8C4.11111 7.7875 4.03644 7.60925 3.88711 7.46525C3.73778 7.32125 3.55319 7.2495 3.33333 7.25C3.11296 7.25 2.92811 7.322 2.77878 7.466C2.62944 7.61 2.55504 7.788 2.55556 8C2.55556 8.2125 2.63022 8.39075 2.77956 8.53475C2.92889 8.67875 3.11348 8.7505 3.33333 8.75ZM12.6667 14C12.887 14 13.0719 13.928 13.2212 13.784C13.3706 13.64 13.445 13.462 13.4444 13.25C13.4444 13.0375 13.3698 12.8593 13.2204 12.7153C13.0711 12.5713 12.8865 12.4995 12.6667 12.5C12.4463 12.5 12.2614 12.572 12.1121 12.716C11.9628 12.86 11.8884 13.038 11.8889 13.25C11.8889 13.4625 11.9636 13.6407 12.1129 13.7847C12.2622 13.9287 12.4468 14.0005 12.6667 14Z" fill="#636363"/>
</svg>
