<svg width="18" height="18" viewBox="0 0 18 18" fill="none" xmlns="http://www.w3.org/2000/svg">
<g clip-path="url(#clip0_36973_2697)">
<path fill-rule="evenodd" clip-rule="evenodd" d="M10.4221 2.27241C10.6875 2.00694 11.0428 1.85066 11.4179 1.83441C11.7929 1.81817 12.1604 1.94314 12.4478 2.18466L12.5431 2.27241L15.7253 5.45466C15.9906 5.72005 16.1467 6.07522 16.163 6.45009C16.1792 6.82497 16.0544 7.19231 15.8131 7.47966L15.7253 7.57566L7.98982 15.3112C7.7408 15.5602 7.41211 15.7136 7.06132 15.7447L6.92932 15.7499H3.00457C2.81795 15.7499 2.6379 15.681 2.49894 15.5565C2.35998 15.4319 2.2719 15.2604 2.25157 15.0749L2.24707 14.9924V11.0677C2.24716 10.7155 2.37115 10.3746 2.59732 10.1047L2.68732 10.0072L10.4221 2.27241ZM9.12757 5.68791L3.74707 11.0684V14.2499H6.93007L12.3106 8.86941L9.12832 5.68716L9.12757 5.68791ZM11.4826 3.33291L10.1881 4.62741L13.3703 7.80966L14.6648 6.51516L11.4826 3.33291Z" fill="#414141"/>
</g>
<defs>
<clipPath id="clip0_36973_2697">
<rect width="18" height="18" fill="white"/>
</clipPath>
</defs>
</svg>
