<svg width="22" height="22" viewBox="0 0 22 22" fill="none" xmlns="http://www.w3.org/2000/svg">
<g clip-path="url(#clip0_3570_476)">
<path fill-rule="evenodd" clip-rule="evenodd" d="M18.6653 3.83474C19.1116 4.28105 19.1116 5.00467 18.6653 5.45098L4.95098 19.1653C4.50467 19.6116 3.78105 19.6116 3.33474 19.1653C2.88842 18.719 2.88842 17.9953 3.33474 17.549L17.049 3.83474C17.4953 3.38842 18.219 3.38842 18.6653 3.83474Z" fill="#636363"/>
<path fill-rule="evenodd" clip-rule="evenodd" d="M3.33474 3.83474C3.78105 3.38842 4.50467 3.38842 4.95098 3.83474L18.6653 17.549C19.1116 17.9953 19.1116 18.719 18.6653 19.1653C18.219 19.6116 17.4953 19.6116 17.049 19.1653L3.33474 5.45098C2.88842 5.00467 2.88842 4.28105 3.33474 3.83474Z" fill="#636363"/>
</g>
<defs>
<clipPath id="clip0_3570_476">
<rect width="16" height="16" fill="white" transform="translate(3 3.5)"/>
</clipPath>
</defs>
</svg>
