<svg width="22" height="22" viewBox="0 0 22 22" fill="none" xmlns="http://www.w3.org/2000/svg">
<path d="M7.30592 4.30816C7.11004 4.50554 7 4.7732 7 5.05229C7 5.33138 7.11004 5.59904 7.30592 5.79641L12.4779 11.0064L7.30592 16.2163C7.11559 16.4148 7.01028 16.6807 7.01266 16.9566C7.01504 17.2326 7.12492 17.4966 7.31865 17.6917C7.51237 17.8869 7.77443 17.9976 8.04839 18C8.32235 18.0024 8.58628 17.8963 8.78334 17.7045L14.6941 11.7505C14.89 11.5531 15 11.2854 15 11.0064C15 10.7273 14.89 10.4596 14.6941 10.2622L8.78334 4.30816C8.5874 4.11085 8.32169 4 8.04463 4C7.76757 4 7.50186 4.11085 7.30592 4.30816Z" fill="#959595"/>
</svg>
