<svg width="22" height="22" viewBox="0 0 22 22" fill="none" xmlns="http://www.w3.org/2000/svg">
<path d="M16.1252 2.24926C16.383 2.50711 16.5278 2.85679 16.5278 3.22139C16.5278 3.58599 16.383 3.93566 16.1252 4.19351L9.31896 10.9998L16.1252 17.806C16.3757 18.0653 16.5143 18.4127 16.5111 18.7732C16.508 19.1337 16.3634 19.4786 16.1085 19.7335C15.8535 19.9884 15.5087 20.1331 15.1481 20.1362C14.7876 20.1393 14.4403 20.0007 14.181 19.7503L6.40258 11.9719C6.14481 11.714 6 11.3644 6 10.9998C6 10.6352 6.14481 10.2855 6.40258 10.0276L14.181 2.24926C14.4388 1.99149 14.7885 1.84668 15.1531 1.84668C15.5177 1.84668 15.8674 1.99149 16.1252 2.24926Z" fill="#636363"/>
</svg>
