<svg width="22" height="22" viewBox="0 0 22 22" fill="none" xmlns="http://www.w3.org/2000/svg">
<path d="M19.7957 15.6102C19.2753 14.691 18.5018 12.0899 18.5018 8.69264C18.5018 6.65243 17.7115 4.69577 16.3047 3.25312C14.8979 1.81047 12.9899 1 11.0005 1C9.011 1 7.10302 1.81047 5.69625 3.25312C4.28949 4.69577 3.49917 6.65243 3.49917 8.69264C3.49917 12.0909 2.72466 14.691 2.20426 15.6102C2.07137 15.844 2.00091 16.1095 2.00001 16.38C1.9991 16.6505 2.06778 16.9165 2.1991 17.1512C2.33043 17.3858 2.51977 17.5808 2.74802 17.7164C2.97627 17.8521 3.23536 17.9236 3.49917 17.9238H7.32577C7.49884 18.7923 7.95909 19.5728 8.62868 20.1333C9.29828 20.6938 10.1361 21 11.0005 21C11.8648 21 12.7027 20.6938 13.3723 20.1333C14.0418 19.5728 14.5021 18.7923 14.6752 17.9238H18.5018C18.7655 17.9234 19.0245 17.8518 19.2526 17.7161C19.4807 17.5804 19.6699 17.3854 19.8011 17.1508C19.9323 16.9161 20.0009 16.6502 20 16.3798C19.999 16.1093 19.9286 15.8439 19.7957 15.6102ZM11.0005 19.4623C10.5352 19.4622 10.0815 19.3142 9.70162 19.0386C9.32178 18.7631 9.03456 18.3736 8.87948 17.9238H13.1215C12.9664 18.3736 12.6792 18.7631 12.2993 19.0386C11.9195 19.3142 11.4657 19.4622 11.0005 19.4623ZM3.49917 16.3853C4.22117 15.1121 4.99943 12.162 4.99943 8.69264C4.99943 7.06047 5.63168 5.49515 6.75709 4.34103C7.88251 3.18691 9.4089 2.53853 11.0005 2.53853C12.592 2.53853 14.1184 3.18691 15.2438 4.34103C16.3693 5.49515 17.0015 7.06047 17.0015 8.69264C17.0015 12.1591 17.7779 15.1093 18.5018 16.3853H3.49917Z" fill="#636363" stroke="#636363" stroke-width="0.5"/>
</svg>
