<svg width="24" height="24" viewBox="0 0 24 24" fill="none" xmlns="http://www.w3.org/2000/svg">
<path d="M16.3571 12.1429H13.1429V15.3571C13.1429 15.5276 13.0751 15.6912 12.9546 15.8117C12.834 15.9323 12.6705 16 12.5 16C12.3295 16 12.166 15.9323 12.0454 15.8117C11.9249 15.6912 11.8571 15.5276 11.8571 15.3571V12.1429H8.64286C8.47236 12.1429 8.30885 12.0751 8.18829 11.9546C8.06773 11.834 8 11.6705 8 11.5C8 11.3295 8.06773 11.166 8.18829 11.0454C8.30885 10.9249 8.47236 10.8571 8.64286 10.8571H11.8571V7.64286C11.8571 7.47236 11.9249 7.30885 12.0454 7.18829C12.166 7.06773 12.3295 7 12.5 7C12.6705 7 12.834 7.06773 12.9546 7.18829C13.0751 7.30885 13.1429 7.47236 13.1429 7.64286V10.8571H16.3571C16.5276 10.8571 16.6912 10.9249 16.8117 11.0454C16.9323 11.166 17 11.3295 17 11.5C17 11.6705 16.9323 11.834 16.8117 11.9546C16.6912 12.0751 16.5276 12.1429 16.3571 12.1429Z" fill="black"/>
</svg>
