<svg width="22" height="22" viewBox="0 0 22 22" fill="none" xmlns="http://www.w3.org/2000/svg">
<path d="M14.6941 4.30816C14.89 4.50554 15 4.7732 15 5.05229C15 5.33138 14.89 5.59904 14.6941 5.79641L9.52205 11.0064L14.6941 16.2163C14.8844 16.4148 14.9897 16.6807 14.9873 16.9566C14.985 17.2326 14.8751 17.4966 14.6814 17.6917C14.4876 17.8869 14.2256 17.9976 13.9516 18C13.6777 18.0024 13.4137 17.8963 13.2167 17.7045L7.30592 11.7505C7.11004 11.5531 7 11.2854 7 11.0064C7 10.7273 7.11004 10.4596 7.30592 10.2622L13.2167 4.30816C13.4126 4.11085 13.6783 4 13.9554 4C14.2324 4 14.4981 4.11085 14.6941 4.30816Z" fill="#959595"/>
</svg>
