<svg width="22" height="22" viewBox="0 0 22 22" fill="none" xmlns="http://www.w3.org/2000/svg">
<path d="M21 11C21 9.89543 20.1046 9 19 9C17.8954 9 17 9.89543 17 11C17 12.1046 17.8954 13 19 13C20.1046 13 21 12.1046 21 11Z" fill="#636363"/>
<path d="M5 11C5 9.89543 4.10457 9 3 9C1.89543 9 1 9.89543 1 11C1 12.1046 1.89543 13 3 13C4.10457 13 5 12.1046 5 11Z" fill="#636363"/>
<path d="M13 11C13 9.89543 12.1046 9 11 9C9.89543 9 9 9.89543 9 11C9 12.1046 9.89543 13 11 13C12.1046 13 13 12.1046 13 11Z" fill="#636363"/>
</svg>
