<svg width="20" height="20" viewBox="0 0 20 20" fill="none" xmlns="http://www.w3.org/2000/svg">
<g clip-path="url(#clip0_36973_363)">
<path d="M5.74135 10.2326C5.69998 10.0114 5.61425 9.80091 5.48932 9.61374L1.53987 3.68969C1.49272 3.61894 1.46835 3.53546 1.47001 3.45046C1.47168 3.36546 1.49931 3.28301 1.54919 3.21416C1.59907 3.14532 1.66882 3.09338 1.74907 3.06532C1.82933 3.03726 1.91624 3.03442 1.99816 3.05718L18.1181 7.54949C18.1941 7.56928 18.2629 7.61029 18.3164 7.66774C18.3699 7.72518 18.406 7.79667 18.4203 7.87386C18.4347 7.95104 18.4268 8.03072 18.3975 8.10356C18.3682 8.17641 18.3188 8.23942 18.2551 8.28521L4.83023 18.2756C4.76199 18.3264 4.67987 18.355 4.5949 18.3577C4.50992 18.3603 4.42616 18.337 4.35485 18.2907C4.28354 18.2444 4.2281 18.1774 4.19597 18.0987C4.16384 18.02 4.15655 17.9333 4.17509 17.8503L5.73002 10.9008C5.77886 10.6811 5.78272 10.4538 5.74135 10.2326ZM5.74135 10.2326L18.4161 7.87524" stroke="white" stroke-width="2" stroke-linecap="round" stroke-linejoin="round"/>
</g>
<defs>
<clipPath id="clip0_36973_363">
<rect width="20" height="20" fill="white"/>
</clipPath>
</defs>
</svg>
