<svg width="22" height="23" viewBox="0 0 22 23" fill="none" xmlns="http://www.w3.org/2000/svg">
<path d="M16.1252 2.74926C16.383 3.00711 16.5278 3.35679 16.5278 3.72139C16.5278 4.08599 16.383 4.43566 16.1252 4.69351L9.31896 11.4998L16.1252 18.306C16.3757 18.5653 16.5143 18.9127 16.5111 19.2732C16.508 19.6337 16.3634 19.9786 16.1085 20.2335C15.8535 20.4884 15.5087 20.6331 15.1481 20.6362C14.7876 20.6393 14.4403 20.5007 14.181 20.2503L6.40258 12.4719C6.14481 12.214 6 11.8644 6 11.4998C6 11.1352 6.14481 10.7855 6.40258 10.5276L14.181 2.74926C14.4388 2.49149 14.7885 2.34668 15.1531 2.34668C15.5177 2.34668 15.8674 2.49149 16.1252 2.74926Z" fill="#636363"/>
</svg>
