<svg width="24" height="24" viewBox="0 0 24 24" fill="none" xmlns="http://www.w3.org/2000/svg">
<path d="M8.14083 3.3911C8.2907 3.09312 8.52042 2.84265 8.80436 2.66762C9.0883 2.4926 9.41528 2.39991 9.74883 2.3999H14.2656C14.6001 2.39991 14.9279 2.49311 15.2124 2.66904C15.4968 2.84496 15.7266 3.09666 15.876 3.3959L16.578 4.7999H18.606C19.4017 4.7999 20.1647 5.11597 20.7273 5.67858C21.29 6.24119 21.606 7.00425 21.606 7.7999V12.3131C20.9234 11.7468 20.1334 11.3244 19.2833 11.0714C18.4333 10.8183 17.5408 10.7399 16.6596 10.8407C16.374 9.70576 15.6838 8.71416 14.7187 8.05221C13.7536 7.39026 12.5799 7.10352 11.4183 7.24587C10.2566 7.38822 9.18697 7.94986 8.41022 8.82526C7.63347 9.70066 7.20312 10.8296 7.20003 11.9999C7.19965 13.0715 7.5579 14.1125 8.2177 14.9569C8.8775 15.8013 9.80091 16.4007 10.8408 16.6595C10.6955 17.9459 10.9317 19.2467 11.52 20.3999H5.40723C4.61158 20.3999 3.84852 20.0838 3.28591 19.5212C2.7233 18.9586 2.40723 18.1956 2.40723 17.3999V7.7999C2.40723 7.00425 2.7233 6.24119 3.28591 5.67858C3.84852 5.11597 4.61158 4.7999 5.40723 4.7999H7.43523L8.14083 3.3911ZM12 8.3999C13.6716 8.3999 15.0768 9.5399 15.4824 11.0831C14.4445 11.3992 13.5003 11.9658 12.7331 12.733C11.9659 13.5002 11.3993 14.4444 11.0832 15.4823C10.2382 15.2585 9.50342 14.735 9.01592 14.0094C8.52842 13.2838 8.32148 12.4057 8.4337 11.5388C8.54593 10.6719 8.96964 9.87537 9.62583 9.29783C10.282 8.72028 11.1259 8.40113 12 8.3999ZM22.8 17.3999C22.8 18.8321 22.2311 20.2056 21.2184 21.2183C20.2057 22.231 18.8322 22.7999 17.4 22.7999C15.9679 22.7999 14.5943 22.231 13.5816 21.2183C12.569 20.2056 12 18.8321 12 17.3999C12 15.9677 12.569 14.5942 13.5816 13.5815C14.5943 12.5688 15.9679 11.9999 17.4 11.9999C18.8322 11.9999 20.2057 12.5688 21.2184 13.5815C22.2311 14.5942 22.8 15.9677 22.8 17.3999ZM18 14.9999C18 14.8408 17.9368 14.6882 17.8243 14.5756C17.7118 14.4631 17.5592 14.3999 17.4 14.3999C17.2409 14.3999 17.0883 14.4631 16.9758 14.5756C16.8632 14.6882 16.8 14.8408 16.8 14.9999V16.7999H15C14.8409 16.7999 14.6883 16.8631 14.5758 16.9756C14.4632 17.0882 14.4 17.2408 14.4 17.3999C14.4 17.559 14.4632 17.7116 14.5758 17.8242C14.6883 17.9367 14.8409 17.9999 15 17.9999H16.8V19.7999C16.8 19.959 16.8632 20.1116 16.9758 20.2242C17.0883 20.3367 17.2409 20.3999 17.4 20.3999C17.5592 20.3999 17.7118 20.3367 17.8243 20.2242C17.9368 20.1116 18 19.959 18 19.7999V17.9999H19.8C19.9592 17.9999 20.1118 17.9367 20.2243 17.8242C20.3368 17.7116 20.4 17.559 20.4 17.3999C20.4 17.2408 20.3368 17.0882 20.2243 16.9756C20.1118 16.8631 19.9592 16.7999 19.8 16.7999H18V14.9999Z" fill="#FF7618"/>
</svg>
