<svg width="20" height="20" viewBox="0 0 20 20" fill="none" xmlns="http://www.w3.org/2000/svg">
<path d="M18.3125 12.5625C18.3948 12.7051 18.4381 12.8668 18.4381 13.0314C18.4381 13.196 18.3947 13.3577 18.3123 13.5003C18.23 13.6428 18.1115 13.7611 17.9689 13.8434C17.8263 13.9256 17.6646 13.9689 17.5 13.9687C17.335 13.9705 17.1726 13.9279 17.0297 13.8454C16.8867 13.763 16.7686 13.6437 16.6875 13.5L15.414 11.2969C14.6969 11.7457 13.9249 12.1002 13.1172 12.3516L13.5234 14.6484C13.5459 14.7696 13.544 14.894 13.518 15.0144C13.492 15.1349 13.4422 15.2489 13.3717 15.35C13.3012 15.451 13.2113 15.537 13.1073 15.603C13.0032 15.669 12.8871 15.7137 12.7656 15.7344L12.6015 15.75C12.3816 15.7497 12.1687 15.6721 12.0001 15.5307C11.8316 15.3893 11.7182 15.1932 11.6797 14.9766L11.2812 12.7344C10.8564 12.7888 10.4283 12.8149 9.99998 12.8125C9.56917 12.8108 9.13879 12.7847 8.71092 12.7344L8.31248 14.9766C8.27398 15.1932 8.16054 15.3893 7.99201 15.5307C7.82348 15.6721 7.6106 15.7497 7.39061 15.75L7.22655 15.7344C7.10508 15.7137 6.98895 15.669 6.8849 15.603C6.78085 15.537 6.69095 15.451 6.62044 15.35C6.54993 15.2489 6.5002 15.1349 6.47416 15.0144C6.44811 14.894 6.44627 14.7696 6.46873 14.6484L6.87498 12.3516C6.0697 12.1001 5.30031 11.7456 4.58592 11.2969L3.30467 13.5156C3.22174 13.6577 3.10316 13.7757 2.96066 13.8579C2.81817 13.9401 2.65668 13.9837 2.49217 13.9844C2.32751 13.9857 2.16556 13.9425 2.02342 13.8594C1.91667 13.7979 1.82309 13.7159 1.74803 13.6182C1.67297 13.5205 1.61791 13.409 1.58598 13.29C1.55406 13.171 1.5459 13.0469 1.56197 12.9247C1.57805 12.8026 1.61804 12.6848 1.67967 12.5781L3.07811 10.1562C2.60489 9.73586 2.16841 9.27586 1.77342 8.78125C1.68712 8.68698 1.62101 8.57607 1.57914 8.45532C1.53727 8.33457 1.52053 8.20654 1.52996 8.07908C1.53938 7.95163 1.57476 7.82745 1.63393 7.71417C1.69309 7.60088 1.7748 7.5009 1.87402 7.42035C1.97324 7.3398 2.08788 7.28038 2.2109 7.24576C2.33393 7.21113 2.46273 7.20202 2.5894 7.219C2.71607 7.23597 2.83793 7.27866 2.9475 7.34445C3.05707 7.41023 3.15203 7.49773 3.22655 7.60156C4.46092 9.125 6.6328 10.9375 9.99998 10.9375C13.3672 10.9375 15.539 9.125 16.7734 7.60156C16.8479 7.49773 16.9429 7.41023 17.0525 7.34445C17.162 7.27866 17.2839 7.23597 17.4106 7.219C17.5372 7.20202 17.666 7.21113 17.7891 7.24576C17.9121 7.28038 18.0267 7.3398 18.1259 7.42035C18.2252 7.5009 18.3069 7.60088 18.366 7.71417C18.4252 7.82745 18.4606 7.95163 18.47 8.07908C18.4794 8.20654 18.4627 8.33457 18.4208 8.45532C18.379 8.57607 18.3128 8.68698 18.2265 8.78125C17.8297 9.27669 17.3934 9.73914 16.9219 10.1641L18.3125 12.5625Z" fill="#636363"/>
</svg>
