<svg width="24" height="24" viewBox="0 0 24 24" fill="none" xmlns="http://www.w3.org/2000/svg">
<g clip-path="url(#clip0_8141_3657)">
<path d="M3.89252 15.9074C4.02486 16.2412 4.05432 16.607 3.97712 16.9577L3.01862 19.9187C2.98774 20.0689 2.99572 20.2244 3.04182 20.3706C3.08792 20.5168 3.1706 20.6488 3.28202 20.7541C3.39345 20.8594 3.52992 20.9345 3.6785 20.9723C3.82708 21.01 3.98285 21.0092 4.13102 20.9699L7.20272 20.0717C7.53366 20.0061 7.87639 20.0347 8.19182 20.1545C10.1137 21.052 12.2907 21.2419 14.3389 20.6906C16.3871 20.1394 18.1748 18.8825 19.3866 17.1416C20.5984 15.4008 21.1564 13.2879 20.9622 11.1758C20.7679 9.0636 19.8339 7.08792 18.325 5.59728C16.816 4.10665 14.829 3.19686 12.7147 3.02843C10.6003 2.86 8.49434 3.44376 6.76842 4.67672C5.04249 5.90967 3.8075 7.71258 3.28133 9.76735C2.75515 11.8221 2.97161 13.9967 3.89252 15.9074Z" stroke="#414141" stroke-width="2" stroke-linecap="round" stroke-linejoin="round"/>
</g>
<defs>
<clipPath id="clip0_8141_3657">
<rect width="24" height="24" fill="white"/>
</clipPath>
</defs>
</svg>
