<svg width="20" height="20" viewBox="0 0 20 20" fill="none" xmlns="http://www.w3.org/2000/svg">
<path d="M10 5C10 3.83333 10.7 1.4 13.5 1C13.3333 2.33333 12.4 5 10 5Z" fill="#1C242F"/>
<path d="M17.0002 7C13.4002 10.6 15.8335 13.5 17.5002 14.5C16.6668 16 14.7 19 13.5 19C12.3 19 11.3333 18.6667 11 18.5C10.6667 18.3333 9.8 18.1 9 18.5C8.2 18.9 7.33333 19 7 19C4 19 2 13.5 2 11C2 9 3.33333 7.16667 4 6.5C4.33333 6.16667 5.3 5.5 6.5 5.5C7.7 5.5 8.66667 5.83333 9 6C9.16667 6.16667 9.7 6.4 10.5 6C11.3 5.6 12.5 5.5 13 5.5C15.5 5.5 16.3335 6.5 17.0002 7Z" fill="#1C242F"/>
</svg>
