<svg width="44" height="44" viewBox="0 0 44 44" fill="none" xmlns="http://www.w3.org/2000/svg">
<path d="M28.2822 4C29.036 4.00086 31.3063 6.19322 32.8652 9H38C40.2091 9 42 10.7909 42 13V36.667C41.9998 38.876 40.209 40.667 38 40.667H6C3.79099 40.667 2.0002 38.876 2 36.667V13C2 10.7909 3.79086 9 6 9H11.3174C12.7511 6.74594 14.9226 4 16.6152 4H28.2822ZM22 14C16.4772 14 12 18.4772 12 24C12 29.5228 16.4772 34 22 34C27.5228 34 32 29.5228 32 24C32 18.4772 27.5228 14 22 14ZM22 17.333C25.6818 17.3332 28.666 20.3182 28.666 24C28.666 27.6818 25.6818 30.6668 22 30.667C18.3181 30.667 15.333 27.6819 15.333 24C15.333 20.3181 18.3181 17.333 22 17.333Z" fill="#414141"/>
</svg>
